<svg width="11" height="10" viewBox="0 0 11 10" fill="none" xmlns="http://www.w3.org/2000/svg">
<path d="M9.40172 3.77221L8.61552 3.37255C8.47006 3.30059 8.28826 3.3546 8.2163 3.50006C8.14036 3.64944 8.19835 3.82732 8.34381 3.89928L8.96885 4.21504L8.95629 6.10427L7.47722 6.09839L7.50412 2.05171C7.50937 1.26289 6.98347 0.864961 6.32875 0.860609L3.17345 0.839632C2.51872 0.83528 1.98759 1.22618 1.98235 2.015L1.93974 8.42421L1.34812 8.42028C1.18641 8.4192 1.05142 8.55241 1.05034 8.71412C1.04927 8.87583 1.18248 9.01082 1.34419 9.01189L8.0492 9.05647C8.21091 9.05754 8.3459 8.92434 8.34697 8.76263C8.34805 8.60092 8.21484 8.46593 8.05313 8.46485L7.46151 8.46092L7.47329 6.69L9.24817 6.69786C9.41382 6.69896 9.54487 6.56573 9.54594 6.40402L9.56168 4.03754C9.56241 3.92711 9.49999 3.82414 9.40172 3.77221ZM2.96342 2.767C2.96707 2.21877 3.30363 2.02379 3.71382 2.02651L5.77659 2.04023C6.18284 2.04293 6.51678 2.24236 6.51313 2.7906L6.50991 3.27572C6.50629 3.82001 6.16973 4.01499 5.75954 4.01226L3.70071 3.99858C3.29052 3.99585 2.95658 3.79642 2.96022 3.24818L2.96342 2.767ZM3.14657 4.88236L4.32981 4.89023C4.49152 4.8913 4.62473 5.02629 4.62365 5.188C4.62258 5.34971 4.48759 5.48292 4.32588 5.48185L3.14264 5.47398C2.98093 5.47291 2.84772 5.33791 2.8488 5.1762C2.84987 5.0145 2.98486 4.88129 3.14657 4.88236Z" fill="#90A3BF"/>
</svg>
