<svg width="18" height="19" viewBox="0 0 18 19" fill="none" xmlns="http://www.w3.org/2000/svg">
<path d="M10.6831 6.08565C9.96916 6.08091 9.32791 6.42374 8.92601 6.95355C8.53119 6.41845 7.89455 6.06711 7.18067 6.06237C5.96982 6.05432 4.98118 7.03382 4.97307 8.25256C4.96995 8.72191 5.04201 9.15626 5.16949 9.55943C5.77955 11.5356 7.6925 12.7277 8.64089 13.0574C8.77467 13.1057 8.99554 13.1071 9.12996 13.0607C10.0826 12.7436 12.0113 11.5771 12.6476 9.60914C12.7804 9.2077 12.8582 8.77435 12.8613 8.305C12.8694 7.08626 11.8939 6.0937 10.6831 6.08565Z" fill="#3D5278"/>
<rect opacity="0.8" x="0.484988" y="1.04807" width="16.9601" height="16.9601" rx="8.48006" transform="rotate(0.380894 0.484988 1.04807)" stroke="#C3D4E9" stroke-opacity="0.4" stroke-width="0.394421"/>
</svg>
