<svg width="56" height="11" viewBox="0 0 56 11" fill="none" xmlns="http://www.w3.org/2000/svg">
<path d="M0.51805 9.93951L0.580559 0.536712L2.22132 0.547619L5.71083 5.35447L4.92832 5.34926L8.40571 0.588733L10.0465 0.59964L9.98395 10.0024L8.25485 9.99094L8.30435 2.54443L8.97218 2.71296L5.36875 7.4474L5.16681 7.44606L1.71499 2.66471L2.28404 2.50441L2.23453 9.95092L0.51805 9.93951ZM16.8088 10.1993C16.1189 10.1947 15.476 10.0684 14.8802 9.82042C14.2845 9.57244 13.765 9.2282 13.322 8.7877C12.879 8.3472 12.5332 7.83161 12.2847 7.24095C12.0446 6.64192 11.9269 5.99743 11.9315 5.30747C11.9361 4.60909 12.0624 3.96622 12.3104 3.37886C12.5583 2.79149 12.9067 2.28052 13.3555 1.84595C13.8044 1.41138 14.3283 1.07828 14.9273 0.846658C15.5263 0.60662 16.175 0.488922 16.8734 0.493565C17.5717 0.498208 18.2188 0.62452 18.8146 0.872501C19.4104 1.12048 19.9298 1.46472 20.3728 1.90522C20.8159 2.33731 21.1575 2.84866 21.3976 3.43927C21.6461 4.02994 21.7681 4.67446 21.7634 5.37283C21.7588 6.06279 21.6283 6.70563 21.3719 7.30136C21.1156 7.88867 20.763 8.39961 20.3141 8.83418C19.8653 9.26875 19.3413 9.60605 18.7423 9.84609C18.1517 10.0862 17.5072 10.2039 16.8088 10.1993ZM16.8193 8.63424C17.282 8.63732 17.7075 8.56021 18.0956 8.40291C18.4838 8.2372 18.8219 8.00805 19.1099 7.71546C19.4064 7.42292 19.6316 7.07522 19.7858 6.67235C19.9483 6.26953 20.0312 5.83253 20.0343 5.36133C20.0374 4.89014 19.9604 4.45628 19.8032 4.05976C19.6544 3.65487 19.4337 3.3042 19.1412 3.00775C18.8571 2.70294 18.5221 2.46931 18.1361 2.30687C17.7501 2.14443 17.3257 2.06167 16.863 2.05859C16.4086 2.05557 15.9874 2.13271 15.5993 2.29001C15.2111 2.4473 14.8688 2.67643 14.5723 2.97738C14.2843 3.26997 14.059 3.61767 13.8964 4.02049C13.7339 4.41489 13.6511 4.84769 13.648 5.31888C13.6449 5.79007 13.7219 6.22814 13.8791 6.63308C14.0362 7.03802 14.2569 7.38869 14.541 7.68509C14.8336 7.98154 15.1728 8.21519 15.5587 8.38605C15.9447 8.54849 16.3649 8.63122 16.8193 8.63424ZM23.6528 10.0933L23.7153 0.69051L27.2114 0.713752C27.8509 0.718003 28.4138 0.839549 28.9003 1.07839C29.3952 1.30887 29.78 1.64801 30.0547 2.09581C30.3295 2.53519 30.4648 3.07041 30.4606 3.70147C30.4563 4.34936 30.2969 4.89945 29.9826 5.35174C29.6767 5.80409 29.2621 6.13791 28.739 6.35321L30.8721 10.1413L28.9285 10.1284L26.6462 5.98589L27.7525 6.64958L25.3924 6.63389L25.3693 10.1047L23.6528 10.0933ZM25.4024 5.11934L27.2073 5.13134C27.5186 5.13341 27.7882 5.0763 28.0162 4.96001C28.2442 4.83531 28.4221 4.664 28.5497 4.44607C28.6774 4.22814 28.7422 3.97614 28.7441 3.69006C28.746 3.39556 28.6846 3.14272 28.5598 2.93152C28.435 2.71192 28.2595 2.54246 28.0331 2.42315C27.8067 2.29543 27.5379 2.23053 27.2266 2.22847L25.4217 2.21647L25.4024 5.11934ZM32.3915 10.1514L32.454 0.748605L38.7015 0.790138L38.6915 2.30468L34.1604 2.27456L34.1444 4.68521L38.423 4.71365L38.4129 6.2282L34.1343 6.19976L34.1181 8.64827L38.6491 8.67839L38.639 10.1929L32.3915 10.1514ZM40.2921 10.2039L40.3546 0.801128L41.6924 0.810022L46.8208 7.81133L46.1257 7.94555L46.173 0.839808L47.8895 0.851219L47.827 10.254L46.4765 10.245L41.4242 3.19375L42.0561 3.05911L42.0086 10.2153L40.2921 10.2039ZM51.7075 10.2798L51.7599 2.39156L49.324 2.37537L49.3341 0.860823L55.8971 0.904454L55.8871 2.419L53.489 2.40306L53.4366 10.2913L51.7075 10.2798Z" fill="#3563E9"/>
</svg>
