<svg width="10" height="10" viewBox="0 0 10 10" fill="none" xmlns="http://www.w3.org/2000/svg">
<path d="M3.63194 1.28144C2.59858 1.27457 1.7529 2.10908 1.74603 3.14244C1.73929 4.15608 2.52661 4.98173 3.55973 5.0241C3.59131 5.02036 3.62286 5.02057 3.6465 5.02467C3.65439 5.02473 3.65833 5.02475 3.66622 5.02481C3.67017 5.02483 3.67017 5.02483 3.67411 5.02486C4.68404 4.99607 5.48227 4.18097 5.49295 3.16735C5.49982 2.13399 4.6653 1.28831 3.63194 1.28144Z" fill="#90A3BF"/>
<path d="M5.60371 6.08688C4.50818 5.34596 2.7136 5.33403 1.60042 6.06027C1.09729 6.39219 0.818186 6.84393 0.81496 7.32906C0.811735 7.81418 1.08484 8.26565 1.57959 8.60026C2.12931 8.97468 2.85379 9.16488 3.57951 9.1697C4.30523 9.17453 5.03218 8.99398 5.58682 8.6269C6.08601 8.29495 6.36509 7.84716 6.36834 7.35809C6.36762 6.87293 6.09847 6.42149 5.60371 6.08688Z" fill="#90A3BF"/>
<path d="M7.9525 3.41643C8.01052 4.18201 7.46178 4.84889 6.70785 4.9346C6.7039 4.93457 6.7039 4.93457 6.69996 4.93454L6.68812 4.93447C6.66446 4.93431 6.6408 4.93415 6.62102 4.94191C6.23831 4.95909 5.8881 4.83448 5.62533 4.60791C6.03399 4.24775 6.27031 3.70501 6.22692 3.11308C6.20143 2.79342 6.09294 2.50082 5.92894 2.25124C6.07931 2.1773 6.25317 2.13112 6.43076 2.11652C7.20425 2.05461 7.89065 2.63504 7.9525 3.41643Z" fill="#90A3BF"/>
<path d="M8.71709 7.06999C8.68299 7.45237 8.43625 7.78205 8.02457 8.00413C7.62871 8.21844 7.13107 8.31768 6.63813 8.30257C6.92381 8.04809 7.09159 7.72972 7.1254 7.39073C7.16809 6.90193 6.93851 6.43103 6.47559 6.05324C6.21273 5.84245 5.90619 5.67475 5.57175 5.55025C6.44508 5.30362 7.54042 5.48051 8.21125 6.02928C8.57216 6.32356 8.7551 6.69159 8.71709 7.06999Z" fill="#90A3BF"/>
</svg>
