<svg width="18" height="18" viewBox="0 0 18 18" fill="none" xmlns="http://www.w3.org/2000/svg">
<path d="M12.0394 9.75346L11.6494 9.09612C11.5675 8.94963 11.4944 8.67305 11.4955 8.51134L11.5021 7.51347C11.5083 6.5866 10.9693 5.78233 10.1869 5.40242C9.98425 5.03819 9.60711 4.81086 9.17326 4.80798C8.74335 4.80512 8.35528 5.03525 8.14775 5.40069C7.3761 5.77816 6.83837 6.56739 6.83229 7.48243L6.82565 8.48029C6.82458 8.642 6.7478 8.91759 6.66403 9.05903L6.2613 9.71505C6.10178 9.97826 6.06434 10.2699 6.16116 10.5387C6.25406 10.8036 6.47751 11.0102 6.76872 11.1108C7.53215 11.3762 8.33592 11.5077 9.14052 11.5131C9.94512 11.5184 10.7506 11.3976 11.5174 11.1463C11.7941 11.0574 12.0085 10.8498 12.1128 10.5783C12.2172 10.3068 12.1916 10.0069 12.0394 9.75346Z" fill="#3D5278"/>
<path d="M10.2462 11.9188C10.0775 12.3752 9.6375 12.6997 9.12476 12.6962C8.81317 12.6942 8.50637 12.5659 8.29094 12.3397C8.16551 12.2205 8.0719 12.0621 8.01776 11.9C8.06898 11.9083 8.12023 11.9125 8.1754 11.9208C8.26603 11.9332 8.36061 11.9457 8.45522 11.9542C8.6799 11.9754 8.90858 11.9888 9.13734 11.9903C9.36216 11.9918 9.58705 11.9815 9.80805 11.9632C9.89093 11.9559 9.97379 11.9525 10.0527 11.9412C10.1159 11.9337 10.1791 11.9262 10.2462 11.9188Z" fill="#3D5278"/>
<rect opacity="0.8" x="0.72742" y="0.215851" width="16.9601" height="16.9601" rx="8.48006" transform="rotate(0.380894 0.72742 0.215851)" stroke="#C3D4E9" stroke-opacity="0.4" stroke-width="0.394421"/>
<circle cx="14.908" cy="3.07114" r="2.16932" transform="rotate(0.380894 14.908 3.07114)" fill="#FF4423"/>
</svg>
