<svg width="19" height="18" viewBox="0 0 19 18" fill="none" xmlns="http://www.w3.org/2000/svg">
<path d="M12.5954 7.84471C11.8815 7.83997 11.593 7.33318 11.9521 6.71631C12.1596 6.35876 12.0404 5.90043 11.6828 5.69295L11.0031 5.29794C10.6927 5.1105 10.2897 5.21826 10.1022 5.52861L10.0583 5.60326C9.69926 6.22013 9.11553 6.21625 8.76073 5.59463L8.71784 5.51941C8.54243 5.20664 8.14086 5.09353 7.82804 5.27683L7.14311 5.66277C6.78283 5.86547 6.6575 6.32612 6.86021 6.6864C7.21503 7.30407 6.91981 7.80698 6.20592 7.80223C5.79573 7.79951 5.45431 8.1325 5.45156 8.54664L5.44694 9.2408C5.44422 9.65099 5.77721 9.99242 6.19134 9.99517C6.90523 9.99991 7.19374 10.5067 6.83071 11.1235C6.62323 11.4811 6.74245 11.9394 7.10001 12.1469L7.77974 12.5419C8.0901 12.7294 8.49313 12.6216 8.68058 12.3112L8.72446 12.2366C9.08355 11.6197 9.66728 11.6236 10.0221 12.2452L10.065 12.3204C10.2483 12.6333 10.6498 12.7464 10.9627 12.5631L11.6476 12.1771C12.0079 11.9744 12.1332 11.5138 11.9305 11.1574C11.5757 10.5358 11.8709 10.0329 12.5848 10.0377C12.995 10.0404 13.3364 9.7074 13.3391 9.29327L13.3438 8.5991C13.3425 8.18889 13.0095 7.84747 12.5954 7.84471ZM9.38485 10.2018C8.67886 10.1971 8.10684 9.61742 8.11153 8.91142C8.11623 8.20542 8.6959 7.63341 9.4019 7.6381C10.1079 7.64279 10.6799 8.22246 10.6752 8.92846C10.6705 9.63446 10.0909 10.2065 9.38485 10.2018Z" fill="#3D5278"/>
<rect opacity="0.8" x="0.969821" y="0.383637" width="16.9601" height="16.9601" rx="8.48006" transform="rotate(0.380894 0.969821 0.383637)" stroke="#C3D4E9" stroke-opacity="0.4" stroke-width="0.394421"/>
</svg>
