<svg width="11" height="10" viewBox="0 0 11 10" fill="none" xmlns="http://www.w3.org/2000/svg">
<path d="M5.52921 1.04804C3.35205 1.03357 1.57334 2.78879 1.55886 4.96595C1.54439 7.1431 3.29961 8.92182 5.47677 8.93629C7.65393 8.95077 9.43264 7.19554 9.44711 5.01839C9.46159 2.84123 7.71031 1.06254 5.52921 1.04804Z" fill="#90A3BF"/>
<rect x="2.36865" y="1.8159" width="6.31074" height="6.31074" rx="3.15537" transform="rotate(0.380894 2.36865 1.8159)" fill="white"/>
<path d="M5.5187 2.62564C4.2124 2.61696 3.14517 3.67009 3.13649 4.97638C3.12781 6.28268 4.18094 7.34991 5.48723 7.35859C6.79353 7.36728 7.86076 6.31414 7.86944 5.00785C7.87812 3.70155 6.82736 2.63434 5.5187 2.62564Z" fill="#90A3BF"/>
<rect x="3.93579" y="3.40399" width="3.15537" height="3.15537" rx="1.57769" transform="rotate(0.380894 3.93579 3.40399)" fill="white"/>
<rect x="5.09546" y="6.96165" width="0.788843" height="1.57769" transform="rotate(0.380894 5.09546 6.96165)" fill="#90A3BF"/>
<rect x="7.4776" y="4.61086" width="1.57769" height="0.788843" transform="rotate(0.380894 7.4776 4.61086)" fill="#90A3BF"/>
<rect x="1.95587" y="4.57417" width="1.57769" height="0.788843" transform="rotate(0.380894 1.95587 4.57417)" fill="#90A3BF"/>
</svg>
